<svg version="1.1" xmlns="http://www.w3.org/2000/svg" viewBox="-37.04089424181025 -20.307748606712188 74.0817884836205 40.615497213424376" fill="none" stroke="black" stroke-width="0.6%" vector-effect="non-scaling-stroke">
    <path d="M -36.04089 11.85242 L 0 19.30775 L 0 0 L 36.04089 -11.85242 L 0 -19.30775 L -36.04089 -7.45533" />
    <path d="M -36.04089 11.85242 L -36.04089 -7.45533" />
    <path d="M 0 0 L -36.04089 -7.45533" />
    <path d="M 0 19.30775 L 36.04089 7.45533 L 36.04089 -11.85242" />
    <path d="M 26.85769 -10.77265 L 22.99971 -10.92156 L 21.56517 -11.86745 L 23.98861 -12.66442 L 27.84659 -12.51551 L 29.28113 -11.56962 L 26.85769 -10.77265 Z" />
    <path d="M -15.10523 -6.10401 L -11.24724 -5.9551 L -9.8127 -5.00922 L -12.23614 -4.21224 L -16.09412 -4.36116 L -17.52867 -5.30704 L -15.10523 -6.10401 Z" />
    <path d="M -8.26988 -8.35189 L -4.4119 -8.20297 L -2.97736 -7.25709 L -5.4008 -6.46012 L -9.25878 -6.60903 L -10.69332 -7.55491 L -8.26988 -8.35189 Z" />
    <path d="M -3.35276 -3.67293 L 0.50522 -3.52402 L 1.93976 -2.57813 L -0.48368 -1.78116 L -4.34166 -1.93007 L -5.7762 -2.87596 L -3.35276 -3.67293 Z" />
    <path d="M 3.48258 -5.9208 L 7.34056 -5.77189 L 8.77511 -4.826 L 6.35167 -4.02903 L 2.49368 -4.17794 L 1.05914 -5.12383 L 3.48258 -5.9208 Z" />
    <path d="M -1.43454 -10.59976 L 2.42344 -10.45085 L 3.85798 -9.50496 L 1.43454 -8.70799 L -2.42344 -8.8569 L -3.85798 -9.80279 L -1.43454 -10.59976 Z" />
    <path d="M 5.4008 -12.84763 L 9.25878 -12.69872 L 10.69332 -11.75283 L 8.26988 -10.95586 L 4.4119 -11.10477 L 2.97736 -12.05066 L 5.4008 -12.84763 Z" />
    <path d="M 15.10523 -13.20373 L 11.24724 -13.35265 L 9.8127 -14.29853 L 12.23614 -15.09551 L 16.09412 -14.94659 L 17.52867 -14.00071 L 15.10523 -13.20373 Z" />
    <path d="M 10.31792 -8.16867 L 14.1759 -8.01976 L 15.61045 -7.07388 L 13.18701 -6.2769 L 9.32903 -6.42582 L 7.89448 -7.3717 L 10.31792 -8.16867 Z" />
    <path d="M 20.02235 -8.52478 L 16.16437 -8.67369 L 14.72982 -9.61957 L 17.15326 -10.41655 L 21.01125 -10.26763 L 22.44579 -9.32175 L 20.02235 -8.52478 Z" />
    <path d="M -3.48258 -13.38695 L -7.34056 -13.53586 L -8.77511 -14.48174 L -6.35167 -15.27872 L -2.49368 -15.1298 L -1.05914 -14.18392 L -3.48258 -13.38695 Z" />
    <path d="M -26.85769 -8.5351 L -22.99971 -8.38619 L -21.56517 -7.4403 L -23.98861 -6.64333 L -27.84659 -6.79224 L -29.28113 -7.73813 L -26.85769 -8.5351 Z" />
    <path d="M -20.02235 -10.78297 L -16.16437 -10.63406 L -14.72982 -9.68817 L -17.15326 -8.8912 L -21.01125 -9.04011 L -22.44579 -9.986 L -20.02235 -10.78297 Z" />
    <path d="M 0.48368 -17.52659 L 4.34166 -17.37768 L 5.7762 -16.43179 L 3.35276 -15.63482 L -0.50522 -15.78373 L -1.93976 -16.72962 L 0.48368 -17.52659 Z" />
    <path d="M -13.18701 -13.03084 L -9.32903 -12.88193 L -7.89448 -11.93605 L -10.31792 -11.13907 L -14.1759 -11.28799 L -15.61045 -12.23387 L -13.18701 -13.03084 Z" />
    <path d="M -15.10523 -4.32299 L -15.10523 -6.10401" />
    <path d="M -11.24724 -4.53745 L -11.24724 -5.9551" />
    <path d="M -8.26988 -6.57086 L -8.26988 -8.35189" />
    <path d="M -4.4119 -6.78532 L -4.4119 -8.20297" />
    <path d="M -3.35276 -1.8919 L -3.35276 -3.67293" />
    <path d="M 0.50522 -2.10637 L 0.50522 -3.52402" />
    <path d="M 3.48258 -4.13977 L 3.48258 -5.9208" />
    <path d="M 7.34056 -4.35424 L 7.34056 -5.77189" />
    <path d="M -1.43454 -8.81873 L -1.43454 -10.59976" />
    <path d="M 2.42344 -9.0332 L 2.42344 -10.45085" />
    <path d="M 5.4008 -11.0666 L 5.4008 -12.84763" />
    <path d="M 9.25878 -11.28107 L 9.25878 -12.69872" />
    <path d="M 16.09412 -13.52894 L 16.09412 -14.94659" />
    <path d="M 12.23614 -13.31448 L 12.23614 -15.09551" />
    <path d="M 10.31792 -6.38765 L 10.31792 -8.16867" />
    <path d="M 14.1759 -6.60211 L 14.1759 -8.01976" />
    <path d="M 21.01125 -8.84998 L 21.01125 -10.26763" />
    <path d="M 17.15326 -8.63552 L 17.15326 -10.41655" />
    <path d="M 23.98861 -10.88339 L 23.98861 -12.66442" />
    <path d="M 27.84659 -11.09786 L 27.84659 -12.51551" />
    <path d="M -26.85769 -6.75407 L -26.85769 -8.5351" />
    <path d="M -22.99971 -6.96854 L -22.99971 -8.38619" />
    <path d="M -20.02235 -9.00194 L -20.02235 -10.78297" />
    <path d="M -16.16437 -9.21641 L -16.16437 -10.63406" />
    <path d="M 0.48368 -15.74556 L 0.48368 -17.52659" />
    <path d="M 4.34166 -15.96003 L 4.34166 -17.37768" />
    <path d="M -13.18701 -11.24982 L -13.18701 -13.03084" />
    <path d="M -9.32903 -11.46428 L -9.32903 -12.88193" />
    <path d="M -6.35167 -13.49769 L -6.35167 -15.27872" />
    <path d="M -2.49368 -13.71215 L -2.49368 -15.1298" />
</svg>