<svg version="1.1" xmlns="http://www.w3.org/2000/svg" viewBox="-16.363125831849704 -19.946133409527267 32.726251663699415 43.858873258400706" fill="none" stroke="black" stroke-width="0.6%" vector-effect="non-scaling-stroke">
    <path d="M 3.39926 -11.78985 L 0.97765 -12.80069 L -2.42161 -12.46721 L -3.39926 -11.12289 L -0.97765 -10.11205 L 2.42161 -10.44553 L 3.39926 -11.78985 Z" />
    <path d="M 3.39926 -7.2073 L 3.39926 -11.78985" />
    <path d="M -15.36312 2.79478 L 0 4.58255 L 15.36312 -16.54242 L 7.86854 -17.41455" />
    <path d="M 0 -18.33019 L -15.36312 2.79478" />
    <path d="M 1.6985 -18.13254 L 0 -18.33019" />
    <path d="M -5.44693 0.61594 L -7.86854 -0.3949 L -7.86854 -4.97744 L -5.44693 -3.96661 L -2.04766 -4.30008 L -1.07001 -5.6444 L -3.49162 -6.65524 L -6.89088 -6.32176 L -7.86854 -4.97744" />
    <path d="M -1.07001 -1.06185 L -2.04766 0.28246 L -5.44693 0.61594 L -5.44693 -3.96661" />
    <path d="M 1.16463 -4.13458 L 0.18697 -2.79026 L -1.07001 -2.66695" />
    <path d="M 2.42161 -5.86298 L 1.16463 -5.73967" />
    <path d="M 3.39926 -7.2073 L 2.42161 -5.86298 L 2.42161 -10.44553" />
    <path d="M 5.6339 -10.28002 L 4.65625 -8.93571 L 3.39926 -8.81239" />
    <path d="M 7.86854 -13.35275 L 6.89088 -12.00843 L 5.6339 -11.88512" />
    <path d="M -15.36312 21.12497 L -15.36312 2.79478" />
    <path d="M 0 22.91274 L 0 4.58255" />
    <path d="M -15.36312 21.12497 L 0 22.91274 L 15.36312 1.78777 L 15.36312 -16.54242" />
    <path d="M -1.07001 -1.06185 L -1.07001 -5.6444" />
    <path d="M -2.04766 0.28246 L -2.04766 -4.30008" />
    <path d="M -1.25698 -9.72796 L -4.65625 -9.39448 L -5.6339 -8.05017 L -3.21229 -7.03933 L 0.18697 -7.37281 L 1.16463 -8.71712 L -1.25698 -9.72796 Z" />
    <path d="M -5.6339 -6.44507 L -5.6339 -8.05017" />
    <path d="M 1.16463 -4.13458 L 1.16463 -8.71712" />
    <path d="M -3.21229 -6.53864 L -3.21229 -7.03933" />
    <path d="M 0.18697 -2.79026 L 0.18697 -7.37281" />
    <path d="M -3.39926 -9.5178 L -3.39926 -11.12289" />
    <path d="M -0.97765 -9.61136 L -0.97765 -10.11205" />
    <path d="M 3.21229 -15.87341 L -0.18697 -15.53993 L -1.16463 -14.19561 L 1.25698 -13.18478 L 4.65625 -13.51825 L 5.6339 -14.86257 L 3.21229 -15.87341 Z" />
    <path d="M -1.16463 -12.59052 L -1.16463 -14.19561" />
    <path d="M 5.6339 -10.28002 L 5.6339 -14.86257" />
    <path d="M 1.25698 -12.68409 L 1.25698 -13.18478" />
    <path d="M 4.65625 -8.93571 L 4.65625 -13.51825" />
    <path d="M 5.44693 -18.94613 L 2.04766 -18.61265 L 1.07001 -17.26834 L 3.49162 -16.2575 L 6.89088 -16.59098 L 7.86854 -17.93529 L 5.44693 -18.94613 Z" />
    <path d="M 1.07001 -15.66324 L 1.07001 -17.26834" />
    <path d="M 7.86854 -13.35275 L 7.86854 -17.93529" />
    <path d="M 3.49162 -15.75681 L 3.49162 -16.2575" />
    <path d="M 6.89088 -12.00843 L 6.89088 -16.59098" />
</svg>