<svg version="1.1" xmlns="http://www.w3.org/2000/svg" viewBox="-16.423882981196982 -20.622631516421983 32.84776596239395 43.10639809941139" fill="none" stroke="black" stroke-width="0.6%" vector-effect="non-scaling-stroke">
    <path d="M 3.67767 -11.0834 L 1.01053 -12.0499 L -2.66713 -11.70838 L -3.67767 -10.40036 L -1.01053 -9.43387 L 2.66713 -9.77538 L 3.67767 -11.0834 Z" />
    <path d="M 3.67767 -8.28117 L 3.67767 -11.0834" />
    <path d="M -15.42388 1.28294 L 0 2.80223 L 15.42388 -17.16224 L 9.5281 -17.74299" />
    <path d="M 0 -18.68154 L -15.42388 1.28294" />
    <path d="M 2.52773 -18.43255 L 0 -18.68154" />
    <path d="M -6.86097 0.9411 L -9.5281 -0.0254 L -9.5281 -2.82763 L -6.86097 -1.86113 L -3.1833 -2.20265 L -2.17277 -3.51067 L -4.83991 -4.47717 L -8.51757 -4.13565 L -9.5281 -2.82763" />
    <path d="M -2.17277 -0.70844 L -3.1833 0.59958 L -6.86097 0.9411 L -6.86097 -1.86113" />
    <path d="M 0.75245 -4.49481 L -0.25808 -3.18679 L -2.17277 -3.00899" />
    <path d="M 2.66713 -6.97315 L 0.75245 -6.79535" />
    <path d="M 3.67767 -8.28117 L 2.66713 -6.97315 L 2.66713 -9.77538" />
    <path d="M 6.60288 -12.06754 L 5.59235 -10.75952 L 3.67767 -10.58172" />
    <path d="M 9.5281 -15.8539 L 8.51757 -14.54588 L 6.60288 -14.36808" />
    <path d="M -15.42388 19.96447 L -15.42388 1.28294" />
    <path d="M 0 21.48377 L 0 2.80223" />
    <path d="M -15.42388 19.96447 L 0 21.48377 L 15.42388 1.51929 L 15.42388 -17.16224" />
    <path d="M -2.17277 -0.70844 L -2.17277 -3.51067" />
    <path d="M -3.1833 0.59958 L -3.1833 -2.20265" />
    <path d="M -1.91469 -8.26353 L -5.59235 -7.92202 L -6.60288 -6.614 L -3.93575 -5.6475 L -0.25808 -5.98902 L 0.75245 -7.29704 L -1.91469 -8.26353 Z" />
    <path d="M -6.60288 -4.31345 L -6.60288 -6.614" />
    <path d="M 0.75245 -4.49481 L 0.75245 -7.29704" />
    <path d="M -3.93575 -4.14953 L -3.93575 -5.6475" />
    <path d="M -0.25808 -3.18679 L -0.25808 -5.98902" />
    <path d="M -3.67767 -8.09982 L -3.67767 -10.40036" />
    <path d="M -1.01053 -7.93589 L -1.01053 -9.43387" />
    <path d="M 3.93575 -15.83627 L 0.25808 -15.49475 L -0.75245 -14.18673 L 1.91469 -13.22023 L 5.59235 -13.56175 L 6.60288 -14.86977 L 3.93575 -15.83627 Z" />
    <path d="M -0.75245 -11.88618 L -0.75245 -14.18673" />
    <path d="M 6.60288 -12.06754 L 6.60288 -14.86977" />
    <path d="M 1.91469 -11.72226 L 1.91469 -13.22023" />
    <path d="M 5.59235 -10.75952 L 5.59235 -13.56175" />
    <path d="M 6.86097 -19.62263 L 3.1833 -19.28111 L 2.17277 -17.97309 L 4.83991 -17.0066 L 8.51757 -17.34811 L 9.5281 -18.65613 L 6.86097 -19.62263 Z" />
    <path d="M 2.17277 -15.67255 L 2.17277 -17.97309" />
    <path d="M 9.5281 -15.8539 L 9.5281 -18.65613" />
    <path d="M 4.83991 -15.50862 L 4.83991 -17.0066" />
    <path d="M 8.51757 -14.54588 L 8.51757 -17.34811" />
</svg>