<svg version="1.1" xmlns="http://www.w3.org/2000/svg" viewBox="-16.423882981196975 -20.657053019375642 32.84776596239394 43.140819602365056" fill="none" stroke="black" stroke-width="0.6%" vector-effect="non-scaling-stroke">
    <path d="M 3.77445 -11.09239 L 1.03712 -12.08432 L -2.73732 -11.73382 L -3.77445 -10.39138 L -1.03712 -9.39944 L 2.73732 -9.74995 L 3.77445 -11.09239 Z" />
    <path d="M 3.77445 -8.29016 L 3.77445 -11.09239" />
    <path d="M -15.42388 1.28294 L 0 2.80223 L 15.42388 -17.16224 L 9.62488 -17.73346" />
    <path d="M 0 -18.68154 L -15.42388 1.28294" />
    <path d="M 2.44425 -18.44077 L 0 -18.68154" />
    <path d="M -6.88756 0.97552 L -9.62488 -0.01642 L -9.62488 -2.81865 L -6.88756 -1.82671 L -3.11312 -2.17722 L -2.07599 -3.51966 L -4.81331 -4.51159 L -8.58776 -4.16108 L -9.62488 -2.81865" />
    <path d="M -2.07599 -0.71743 L -3.11312 0.62501 L -6.88756 0.97552 L -6.88756 -1.82671" />
    <path d="M 0.84923 -4.50379 L -0.1879 -3.16135 L -2.07599 -2.98602" />
    <path d="M 2.73732 -6.94772 L 0.84923 -6.77239" />
    <path d="M 3.77445 -8.29016 L 2.73732 -6.94772 L 2.73732 -9.74995" />
    <path d="M 6.69966 -12.07652 L 5.66254 -10.73409 L 3.77445 -10.55875" />
    <path d="M 9.62488 -15.86289 L 8.58776 -14.52045 L 6.69966 -14.34512" />
    <path d="M -15.42388 19.96447 L -15.42388 1.28294" />
    <path d="M 0 21.48377 L 0 2.80223" />
    <path d="M -15.42388 19.96447 L 0 21.48377 L 15.42388 1.51929 L 15.42388 -17.16224" />
    <path d="M -2.07599 -0.71743 L -2.07599 -3.51966" />
    <path d="M -3.11312 0.62501 L -3.11312 -2.17722" />
    <path d="M -1.8881 -8.29796 L -5.66254 -7.94745 L -6.69966 -6.60501 L -3.96234 -5.61308 L -0.1879 -5.96358 L 0.84923 -7.30602 L -1.8881 -8.29796 Z" />
    <path d="M -6.69966 -4.33642 L -6.69966 -6.60501" />
    <path d="M 0.84923 -4.50379 L 0.84923 -7.30602" />
    <path d="M -3.96234 -4.20322 L -3.96234 -5.61308" />
    <path d="M -0.1879 -3.16135 L -0.1879 -5.96358" />
    <path d="M -3.77445 -8.12278 L -3.77445 -10.39138" />
    <path d="M -1.03712 -7.98959 L -1.03712 -9.39944" />
    <path d="M 3.96234 -15.87069 L 0.1879 -15.52018 L -0.84923 -14.17774 L 1.8881 -13.18581 L 5.66254 -13.53632 L 6.69966 -14.87875 L 3.96234 -15.87069 Z" />
    <path d="M -0.84923 -11.90915 L -0.84923 -14.17774" />
    <path d="M 6.69966 -12.07652 L 6.69966 -14.87875" />
    <path d="M 1.8881 -11.77595 L 1.8881 -13.18581" />
    <path d="M 5.66254 -10.73409 L 5.66254 -13.53632" />
    <path d="M 6.88756 -19.65705 L 3.11312 -19.30655 L 2.07599 -17.96411 L 4.81331 -16.97217 L 8.58776 -17.32268 L 9.62488 -18.66512 L 6.88756 -19.65705 Z" />
    <path d="M 2.07599 -15.69551 L 2.07599 -17.96411" />
    <path d="M 9.62488 -15.86289 L 9.62488 -18.66512" />
    <path d="M 4.81331 -15.56232 L 4.81331 -16.97217" />
    <path d="M 8.58776 -14.52045 L 8.58776 -17.32268" />
</svg>