<svg version="1.1" xmlns="http://www.w3.org/2000/svg" viewBox="-12.577166945527091 -20.772316905354216 25.154333891054186 43.69471508817842" fill="none" stroke="black" stroke-width="0.6%" vector-effect="non-scaling-stroke">
    <path d="M 2.90121 -11.32822 L 0.78935 -12.35243 L -2.11185 -11.98541 L -2.90121 -10.59418 L -0.78935 -9.56997 L 2.11185 -9.93699 L 2.90121 -11.32822 Z" />
    <path d="M 2.90121 -6.94374 L 2.90121 -11.32822" />
    <path d="M -11.57717 2.86678 L 0 4.38448 L 11.57717 -16.02021 L 7.11108 -16.60569" />
    <path d="M 0 -17.53792 L -11.57717 2.86678" />
    <path d="M 1.30867 -17.36636 L 0 -17.53792" />
    <path d="M -4.99923 2.2344 L -7.11108 1.21019 L -7.11108 -3.17429 L -4.99923 -2.15008 L -2.09802 -2.5171 L -1.30867 -3.90833 L -3.42053 -4.93254 L -6.32173 -4.56552 L -7.11108 -3.17429" />
    <path d="M -1.30867 0.47615 L -2.09802 1.86738 L -4.99923 2.2344 L -4.99923 -2.15008" />
    <path d="M 0.79627 -3.2338 L 0.00691 -1.84257 L -1.30867 -1.67614" />
    <path d="M 2.11185 -5.55251 L 0.79627 -5.38608" />
    <path d="M 2.90121 -6.94374 L 2.11185 -5.55251 L 2.11185 -9.93699" />
    <path d="M 5.00615 -10.65369 L 4.21679 -9.26246 L 2.90121 -9.09603" />
    <path d="M 7.11108 -14.36363 L 6.32173 -12.9724 L 5.00615 -12.80597" />
    <path d="M -11.57717 20.40469 L -11.57717 2.86678" />
    <path d="M 0 21.9224 L 0 4.38448" />
    <path d="M -11.57717 20.40469 L 0 21.9224 L 11.57717 1.5177 L 11.57717 -16.02021" />
    <path d="M -1.30867 0.47615 L -1.30867 -3.90833" />
    <path d="M -2.09802 1.86738 L -2.09802 -2.5171" />
    <path d="M -1.31559 -8.64248 L -4.21679 -8.27546 L -5.00615 -6.88423 L -2.89429 -5.86003 L 0.00691 -6.22705 L 0.79627 -7.61828 L -1.31559 -8.64248 Z" />
    <path d="M -5.00615 -4.73195 L -5.00615 -6.88423" />
    <path d="M 0.79627 -3.2338 L 0.79627 -7.61828" />
    <path d="M -2.89429 -4.67733 L -2.89429 -5.86003" />
    <path d="M 0.00691 -1.84257 L 0.00691 -6.22705" />
    <path d="M -2.90121 -8.44189 L -2.90121 -10.59418" />
    <path d="M -0.78935 -8.38727 L -0.78935 -9.56997" />
    <path d="M 2.89429 -16.06237 L -0.00691 -15.69535 L -0.79627 -14.30412 L 1.31559 -13.27991 L 4.21679 -13.64694 L 5.00615 -15.03816 L 2.89429 -16.06237 Z" />
    <path d="M -0.79627 -12.15184 L -0.79627 -14.30412" />
    <path d="M 5.00615 -10.65369 L 5.00615 -15.03816" />
    <path d="M 1.31559 -12.09721 L 1.31559 -13.27991" />
    <path d="M 4.21679 -9.26246 L 4.21679 -13.64694" />
    <path d="M 4.99923 -19.77232 L 2.09802 -19.40529 L 1.30867 -18.01406 L 3.42053 -16.98986 L 6.32173 -17.35688 L 7.11108 -18.74811 L 4.99923 -19.77232 Z" />
    <path d="M 1.30867 -15.86178 L 1.30867 -18.01406" />
    <path d="M 7.11108 -14.36363 L 7.11108 -18.74811" />
    <path d="M 3.42053 -15.80716 L 3.42053 -16.98986" />
    <path d="M 6.32173 -12.9724 L 6.32173 -17.35688" />
</svg>