<svg version="1.1" xmlns="http://www.w3.org/2000/svg" viewBox="-16.363125831849707 -20.187158218786976 32.72625166369942 42.530798102326784" fill="none" stroke="black" stroke-width="0.6%" vector-effect="non-scaling-stroke">
    <path d="M 3.69063 -11.00909 L 1.06145 -12.03141 L -2.62918 -11.69414 L -3.69063 -10.33455 L -1.06145 -9.31223 L 2.62918 -9.6495 L 3.69063 -11.00909 Z" />
    <path d="M 3.69063 -8.22513 L 3.69063 -11.00909" />
    <path d="M -15.36312 1.11862 L 0 2.78395 L 15.36312 -16.89435 L 9.27722 -17.55405" />
    <path d="M 0 -18.55969 L -15.36312 1.11862" />
    <path d="M 2.51777 -18.28676 L 0 -18.55969" />
    <path d="M -6.64804 0.62747 L -9.27722 -0.39485 L -9.27722 -3.17881 L -6.64804 -2.15648 L -2.95741 -2.49375 L -1.89596 -3.85334 L -4.52514 -4.87567 L -8.21577 -4.5384 L -9.27722 -3.17881" />
    <path d="M -1.89596 -1.06939 L -2.95741 0.2902 L -6.64804 0.62747 L -6.64804 -2.15648" />
    <path d="M 0.89733 -4.64726 L -0.16412 -3.28767 L -1.89596 -3.12941" />
    <path d="M 2.62918 -6.86554 L 0.89733 -6.70728" />
    <path d="M 3.69063 -8.22513 L 2.62918 -6.86554 L 2.62918 -9.6495" />
    <path d="M 6.48392 -11.80301 L 5.42247 -10.44342 L 3.69063 -10.28515" />
    <path d="M 9.27722 -15.38088 L 8.21577 -14.02129 L 6.48392 -13.86302" />
    <path d="M -15.36312 19.6783 L -15.36312 1.11862" />
    <path d="M 0 21.34364 L 0 2.78395" />
    <path d="M -15.36312 19.6783 L 0 21.34364 L 15.36312 1.66534 L 15.36312 -16.89435" />
    <path d="M -1.89596 -1.06939 L -1.89596 -3.85334" />
    <path d="M -2.95741 0.2902 L -2.95741 -2.49375" />
    <path d="M -1.73184 -8.45354 L -5.42247 -8.11627 L -6.48392 -6.75668 L -3.85475 -5.73435 L -0.16412 -6.07162 L 0.89733 -7.43121 L -1.73184 -8.45354 Z" />
    <path d="M -6.48392 -4.69666 L -6.48392 -6.75668" />
    <path d="M 0.89733 -4.64726 L 0.89733 -7.43121" />
    <path d="M -3.85475 -4.61499 L -3.85475 -5.73435" />
    <path d="M -0.16412 -3.28767 L -0.16412 -6.07162" />
    <path d="M -3.69063 -8.27453 L -3.69063 -10.33455" />
    <path d="M -1.06145 -8.19286 L -1.06145 -9.31223" />
    <path d="M 3.85475 -15.60928 L 0.16412 -15.27202 L -0.89733 -13.91242 L 1.73184 -12.8901 L 5.42247 -13.22737 L 6.48392 -14.58696 L 3.85475 -15.60928 Z" />
    <path d="M -0.89733 -11.85241 L -0.89733 -13.91242" />
    <path d="M 6.48392 -11.80301 L 6.48392 -14.58696" />
    <path d="M 1.73184 -11.77074 L 1.73184 -12.8901" />
    <path d="M 5.42247 -10.44342 L 5.42247 -13.22737" />
    <path d="M 6.64804 -19.18716 L 2.95741 -18.84989 L 1.89596 -17.4903 L 4.52514 -16.46797 L 8.21577 -16.80524 L 9.27722 -18.16483 L 6.64804 -19.18716 Z" />
    <path d="M 1.89596 -15.43028 L 1.89596 -17.4903" />
    <path d="M 9.27722 -15.38088 L 9.27722 -18.16483" />
    <path d="M 4.52514 -15.34861 L 4.52514 -16.46797" />
    <path d="M 8.21577 -14.02129 L 8.21577 -16.80524" />
</svg>