<svg version="1.1" xmlns="http://www.w3.org/2000/svg" viewBox="-16.363125831849707 -20.079822027879718 32.72625166369942 42.42346191141952" fill="none" stroke="black" stroke-width="0.6%" vector-effect="non-scaling-stroke">
    <path d="M 3.39926 -10.98246 L 0.97765 -11.92407 L -2.42161 -11.61343 L -3.39926 -10.36118 L -0.97765 -9.41956 L 2.42161 -9.73021 L 3.39926 -10.98246 Z" />
    <path d="M 3.39926 -8.19851 L 3.39926 -10.98246" />
    <path d="M -15.36312 1.11862 L 0 2.78395 L 15.36312 -16.89435 L 8.98585 -17.58563" />
    <path d="M 0 -18.55969 L -15.36312 1.11862" />
    <path d="M 2.76724 -18.25972 L 0 -18.55969" />
    <path d="M -6.56424 0.52014 L -8.98585 -0.42148 L -8.98585 -3.20543 L -6.56424 -2.26382 L -3.16498 -2.57446 L -2.18733 -3.82671 L -4.60894 -4.76833 L -8.0082 -4.45769 L -8.98585 -3.20543" />
    <path d="M -2.18733 -1.04276 L -3.16498 0.20949 L -6.56424 0.52014 L -6.56424 -2.26382" />
    <path d="M 0.60597 -4.62063 L -0.37168 -3.36838 L -2.18733 -3.20246" />
    <path d="M 2.42161 -6.94625 L 0.60597 -6.78033" />
    <path d="M 3.39926 -8.19851 L 2.42161 -6.94625 L 2.42161 -9.73021" />
    <path d="M 6.19256 -11.77638 L 5.21491 -10.52413 L 3.39926 -10.3582" />
    <path d="M 8.98585 -15.35425 L 8.0082 -14.102 L 6.19256 -13.93608" />
    <path d="M -15.36312 19.6783 L -15.36312 1.11862" />
    <path d="M 0 21.34364 L 0 2.78395" />
    <path d="M -15.36312 19.6783 L 0 21.34364 L 15.36312 1.66534 L 15.36312 -16.89435" />
    <path d="M -2.18733 -1.04276 L -2.18733 -3.82671" />
    <path d="M -3.16498 0.20949 L -3.16498 -2.57446" />
    <path d="M -1.81564 -8.3462 L -5.21491 -8.03556 L -6.19256 -6.78331 L -3.77095 -5.84169 L -0.37168 -6.15233 L 0.60597 -7.40459 L -1.81564 -8.3462 Z" />
    <path d="M -6.19256 -4.62361 L -6.19256 -6.78331" />
    <path d="M 0.60597 -4.62063 L 0.60597 -7.40459" />
    <path d="M -3.77095 -4.44249 L -3.77095 -5.84169" />
    <path d="M -0.37168 -3.36838 L -0.37168 -6.15233" />
    <path d="M -3.39926 -8.20148 L -3.39926 -10.36118" />
    <path d="M -0.97765 -8.02036 L -0.97765 -9.41956" />
    <path d="M 3.77095 -15.50195 L 0.37168 -15.19131 L -0.60597 -13.93905 L 1.81564 -12.99744 L 5.21491 -13.30808 L 6.19256 -14.56033 L 3.77095 -15.50195 Z" />
    <path d="M -0.60597 -11.77936 L -0.60597 -13.93905" />
    <path d="M 6.19256 -11.77638 L 6.19256 -14.56033" />
    <path d="M 1.81564 -11.59823 L 1.81564 -12.99744" />
    <path d="M 5.21491 -10.52413 L 5.21491 -13.30808" />
    <path d="M 6.56424 -19.07982 L 3.16498 -18.76918 L 2.18733 -17.51692 L 4.60894 -16.57531 L 8.0082 -16.88595 L 8.98585 -18.13821 L 6.56424 -19.07982 Z" />
    <path d="M 2.18733 -15.35723 L 2.18733 -17.51692" />
    <path d="M 8.98585 -15.35425 L 8.98585 -18.13821" />
    <path d="M 4.60894 -15.17611 L 4.60894 -16.57531" />
    <path d="M 8.0082 -14.102 L 8.0082 -16.88595" />
</svg>