<svg version="1.1" xmlns="http://www.w3.org/2000/svg" viewBox="-29.847254847682766 -19.598947370799863 59.69450969536554 39.197894741599725" fill="none" stroke="black" stroke-width="0.6%" vector-effect="non-scaling-stroke">
    <path d="M 16.11627 12.25476 L 16.11627 -6.82184 L 14.49016 -7.88652 L 10.6072 -7.9959 L 8.35035 -7.04059 L 9.97645 -5.97592 L 13.85941 -5.86654 L 16.11627 -6.82184" />
    <path d="M 8.35035 -5.04432 L 8.35035 -7.04059" />
    <path d="M 9.97645 13.10068 L 9.97645 -5.97592" />
    <path d="M 9.75078 12.95292 L 9.97645 13.10068 L 13.85941 13.21006 L 16.11627 12.25476" />
    <path d="M 13.85941 13.21006 L 13.85941 -5.86654" />
    <path d="M 22.48176 9.56031 L 22.48176 -9.51629 L 20.85566 -10.58097 L 16.9727 -10.69034 L 14.71584 -9.73504 L 16.34194 -8.67036 L 20.22491 -8.56098 L 22.48176 -9.51629" />
    <path d="M 14.71584 -7.73876 L 14.71584 -9.73504" />
    <path d="M 16.34194 10.40624 L 16.34194 -8.67036" />
    <path d="M 16.11627 10.25848 L 16.34194 10.40624 L 20.22491 10.51561 L 22.48176 9.56031" />
    <path d="M 20.22491 10.51561 L 20.22491 -8.56098" />
    <path d="M 3.38528 17.64364 L 3.38528 -1.43295 L 1.75918 -2.49763 L -2.12378 -2.60701 L -4.38064 -1.65171 L -2.75453 -0.58703 L 1.12843 -0.47765 L 3.38528 -1.43295" />
    <path d="M -4.38064 17.42489 L -4.38064 -1.65171" />
    <path d="M -2.75453 18.48957 L -2.75453 -0.58703" />
    <path d="M -4.38064 17.42489 L -2.75453 18.48957 L 1.12843 18.59895 L 3.38528 17.64364" />
    <path d="M 1.12843 18.59895 L 1.12843 -0.47765" />
    <path d="M 9.75078 14.9492 L 9.75078 -4.1274 L 8.12467 -5.19208 L 4.24171 -5.30145 L 1.98486 -4.34615 L 3.61096 -3.28147 L 7.49392 -3.1721 L 9.75078 -4.1274" />
    <path d="M 1.98486 -2.34987 L 1.98486 -4.34615" />
    <path d="M 3.61096 15.79513 L 3.61096 -3.28147" />
    <path d="M 3.38528 15.64737 L 3.61096 15.79513 L 7.49392 15.9045 L 9.75078 14.9492" />
    <path d="M 7.49392 15.9045 L 7.49392 -3.1721" />
    <path d="M 28.84725 6.86587 L 28.84725 -12.21073 L 27.22115 -13.27541 L 23.33819 -13.38479 L 21.08133 -12.42948 L 22.70744 -11.3648 L 26.5904 -11.25543 L 28.84725 -12.21073" />
    <path d="M 21.08133 -10.43321 L 21.08133 -12.42948" />
    <path d="M 22.70744 7.71179 L 22.70744 -11.3648" />
    <path d="M 22.48176 7.56403 L 22.70744 7.71179 L 26.5904 7.82117 L 28.84725 6.86587" />
    <path d="M 26.5904 7.82117 L 26.5904 -11.25543" />
    <path d="M 3.88296 -5.1496 L 3.88296 -9.42892 L 2.25686 -10.4936 L -1.6261 -10.60298 L -3.88296 -9.64767 L -2.25686 -8.583 L 1.6261 -8.47362 L 3.88296 -9.42892" />
    <path d="M -3.88296 -7.6514 L -3.88296 -9.64767" />
    <path d="M -2.25686 -2.55068 L -2.25686 -8.583" />
    <path d="M 1.6261 -2.50138 L 1.6261 -8.47362" />
    <path d="M 10.24845 -7.84404 L 10.24845 -12.12337 L 8.62235 -13.18805 L 4.73939 -13.29742 L 2.48253 -12.34212 L 4.10864 -11.27744 L 7.9916 -11.16806 L 10.24845 -12.12337" />
    <path d="M 2.48253 -10.34584 L 2.48253 -12.34212" />
    <path d="M 4.10864 -5.24512 L 4.10864 -11.27744" />
    <path d="M 7.9916 -5.19583 L 7.9916 -11.16806" />
    <path d="M -8.84802 15.03656 L -8.84802 -4.04003 L -10.47413 -5.10471 L -14.35709 -5.21409 L -16.61395 -4.25879 L -14.98784 -3.19411 L -11.10488 -3.08473 L -8.84802 -4.04003" />
    <path d="M -16.61395 14.81781 L -16.61395 -4.25879" />
    <path d="M -14.98784 15.88249 L -14.98784 -3.19411" />
    <path d="M -16.61395 14.81781 L -14.98784 15.88249 L -11.10488 15.99187 L -8.84802 15.03656" />
    <path d="M -11.10488 15.99187 L -11.10488 -3.08473" />
    <path d="M -2.48253 -2.45515 L -2.48253 -6.73448 L -4.10864 -7.79916 L -7.9916 -7.90853 L -10.24845 -6.95323 L -8.62235 -5.88855 L -4.73939 -5.77918 L -2.48253 -6.73448" />
    <path d="M -10.24845 -4.95695 L -10.24845 -6.95323" />
    <path d="M -8.62235 13.18805 L -8.62235 -5.88855" />
    <path d="M -8.84802 13.04029 L -8.62235 13.18805 L -4.73939 13.29742 L -4.38064 13.14557" />
    <path d="M -4.73939 13.29742 L -4.73939 -5.77918" />
    <path d="M 16.61395 -10.53849 L 16.61395 -14.81781 L 14.98784 -15.88249 L 11.10488 -15.99187 L 8.84802 -15.03656 L 10.47413 -13.97188 L 14.35709 -13.86251 L 16.61395 -14.81781" />
    <path d="M 8.84802 -13.04029 L 8.84802 -15.03656" />
    <path d="M 10.47413 -7.93957 L 10.47413 -13.97188" />
    <path d="M 14.35709 -7.89027 L 14.35709 -13.86251" />
    <path d="M -8.35035 -7.75668 L -8.35035 -12.036 L -9.97645 -13.10068 L -13.85941 -13.21006 L -16.11627 -12.25476 L -14.49016 -11.19008 L -10.6072 -11.0807 L -8.35035 -12.036" />
    <path d="M -16.11627 -10.25848 L -16.11627 -12.25476" />
    <path d="M -14.49016 -5.15776 L -14.49016 -11.19008" />
    <path d="M -10.6072 -5.10846 L -10.6072 -11.0807" />
    <path d="M -1.98486 -10.45112 L -1.98486 -14.73045 L -3.61096 -15.79513 L -7.49392 -15.9045 L -9.75078 -14.9492 L -8.12467 -13.88452 L -4.24171 -13.77514 L -1.98486 -14.73045" />
    <path d="M -9.75078 -12.95292 L -9.75078 -14.9492" />
    <path d="M -8.12467 -7.8522 L -8.12467 -13.88452" />
    <path d="M -4.24171 -7.80291 L -4.24171 -13.77514" />
    <path d="M -21.08133 12.42948 L -21.08133 -6.64711 L -22.70744 -7.71179 L -26.5904 -7.82117 L -28.84725 -6.86587 L -27.22115 -5.80119 L -23.33819 -5.69181 L -21.08133 -6.64711" />
    <path d="M -28.84725 12.21073 L -28.84725 -6.86587" />
    <path d="M -27.22115 13.27541 L -27.22115 -5.80119" />
    <path d="M -28.84725 12.21073 L -27.22115 13.27541 L -23.33819 13.38479 L -21.08133 12.42948" />
    <path d="M -23.33819 13.38479 L -23.33819 -5.69181" />
    <path d="M -14.71584 -5.06223 L -14.71584 -9.34156 L -16.34194 -10.40624 L -20.22491 -10.51561 L -22.48176 -9.56031 L -20.85566 -8.49563 L -16.9727 -8.38626 L -14.71584 -9.34156" />
    <path d="M -22.48176 -7.56403 L -22.48176 -9.56031" />
    <path d="M -20.85566 10.58097 L -20.85566 -8.49563" />
    <path d="M -21.08133 10.43321 L -20.85566 10.58097 L -16.9727 10.69034 L -16.61395 10.53849" />
    <path d="M -16.9727 10.69034 L -16.9727 -8.38626" />
    <path d="M 4.38064 -13.14557 L 4.38064 -17.42489 L 2.75453 -18.48957 L -1.12843 -18.59895 L -3.38528 -17.64364 L -1.75918 -16.57896 L 2.12378 -16.46959 L 4.38064 -17.42489" />
    <path d="M -3.38528 -15.64737 L -3.38528 -17.64364" />
    <path d="M -1.75918 -10.54665 L -1.75918 -16.57896" />
    <path d="M 2.12378 -10.49735 L 2.12378 -16.46959" />
</svg>